<svg xmlns="http://www.w3.org/2000/svg" viewBox="0 0 32 32" id="debt"><path fill="#f4b51b" d="m18.42 9.86-.87-.5 1.34-2.33-.71-.34c-.51-.25-.9-.7-1.07-1.24-.17-.55-.1-1.14.18-1.63a1.83 1.83 0 0 1 2.49-.67l.16.09c.46.27.79.7.93 1.21s.07 1.05-.2 1.52l-.37.64 1.63.78c1.26.6 2.74.32 3.69-.71.19-.2.5-.22.71-.03.2.19.22.5.03.71a4.127 4.127 0 0 1-4.86.94l-1.7-.81-1.38 2.39Zm.45-5.96c-.07 0-.14 0-.21.03-.21.06-.39.19-.5.38-.15.26-.18.56-.1.84.09.28.29.51.55.64l.78.38.41-.7c.13-.23.17-.5.1-.76a.99.99 0 0 0-.47-.61l-.15-.09a.869.869 0 0 0-.41-.11"></path><path fill="#facc46" fill-rule="evenodd" d="M20.45 13.85c-.09 0-.17-.02-.25-.07l-6.93-4a.493.493 0 0 1-.18-.68l1-1.73c.14-.24.44-.32.68-.18l6.93 4c.24.14.32.44.18.68l-1 1.73c-.09.16-.26.25-.43.25Z"></path><path fill="#f04f59" fill-rule="evenodd" d="M11.97 30.51c-1.82 0-3.61-.48-5.23-1.41C1.73 26.2 0 19.77 2.9 14.76c1.82-3.15 5.17-5.14 8.8-5.24l.53-.91c.14-.24.44-.32.68-.18l8.66 5a.5.5 0 0 1 .18.68l-.53.91c1.72 3.2 1.68 7.1-.14 10.24-1.4 2.43-3.66 4.16-6.38 4.89-.91.24-1.83.36-2.74.36Z"></path><path fill="#f3f3f4" fill-rule="evenodd" d="M11.99 14.01c3.31 0 6 2.69 6 6s-2.69 6-6 6-6-2.69-6-6 2.69-6 6-6"></path><path fill="#d9d9d8" d="M11.99 26.51c-3.58 0-6.5-2.92-6.5-6.5s2.92-6.5 6.5-6.5 6.5 2.92 6.5 6.5-2.92 6.5-6.5 6.5m0-12c-3.03 0-5.5 2.47-5.5 5.5s2.47 5.5 5.5 5.5 5.5-2.47 5.5-5.5-2.47-5.5-5.5-5.5"></path><path fill="#d9d9d8" fill-rule="evenodd" d="M11.49 18.51v1c-.28 0-.5-.22-.5-.5s.22-.5.5-.5Zm1 3v-1c.28 0 .5.22.5.5s-.22.5-.5.5Zm-1-4.5c0-.28.22-.5.5-.5s.5.22.5.5v.5c.83 0 1.5.67 1.5 1.5 0 .28-.22.5-.5.5s-.5-.22-.5-.5-.22-.5-.5-.5v1c.83 0 1.5.67 1.5 1.5s-.67 1.5-1.5 1.5v.5c0 .28-.22.5-.5.5s-.5-.22-.5-.5v-.5c-.83 0-1.5-.67-1.5-1.5 0-.28.22-.5.5-.5s.5.22.5.5.23.5.5.5v-1c-.83 0-1.5-.67-1.5-1.5s.67-1.5 1.5-1.5v-.5Z"></path><path fill="#ee2f37" d="M25.2 5.85c-.22 0-.42-.15-.48-.37l-.63-2.34a.5.5 0 0 1 .35-.61.5.5 0 0 1 .61.35l.63 2.35a.5.5 0 0 1-.48.63Zm1.52.2c-.08 0-.17-.02-.25-.07a.493.493 0 0 1-.18-.68l2.04-3.53c.14-.24.44-.32.68-.18.24.14.32.44.18.68L27.16 5.8c-.09.16-.26.25-.43.25Zm.93 1.21a.5.5 0 0 1-.13-.98l2.35-.63a.5.5 0 0 1 .61.35.5.5 0 0 1-.35.61l-2.35.63s-.09.02-.13.02Z"></path></svg>